<svg width="71" height="72" viewBox="0 0 71 72" fill="none" xmlns="http://www.w3.org/2000/svg">
<g clip-path="url(#clip0)">
<mask id="path-1-inside-1" fill="white">
<path fill-rule="evenodd" clip-rule="evenodd" d="M53.384 14.0925L53.384 14.1061C57.3868 15.499 60.2546 19.2574 60.2546 23.6753C60.2546 29.2791 55.6406 33.8219 49.9488 33.8219C49.9488 33.8219 49.9488 33.8219 49.9487 33.8219H21.3215V33.8217C21.3215 33.8217 21.3215 33.8217 21.3215 33.8217C14.9973 33.8217 9.87057 28.7742 9.87057 22.5478C9.87057 18.3132 12.2418 14.6239 15.7484 12.6968C15.6486 12.2381 15.5961 11.7621 15.5961 11.274C15.5961 7.53812 18.6721 4.5096 22.4666 4.5096C24.2691 4.5096 25.9094 5.19296 27.1349 6.31088C29.6982 2.50747 34.0869 0 39.0704 0C46.9756 0 53.384 6.30942 53.384 14.0925Z"/>
</mask>
<path d="M53.384 14.1061L51.384 14.105C51.3835 14.9566 51.9224 15.7151 52.7267 15.995L53.384 14.1061ZM53.384 14.0925L55.384 14.0936V14.0925H53.384ZM21.3215 33.8219H19.3215C19.3215 34.9265 20.2169 35.8219 21.3215 35.8219V33.8219ZM21.3215 33.8217H23.3215C23.3215 32.7172 22.4261 31.8217 21.3215 31.8217V33.8217ZM15.7484 12.6968L16.7116 14.4496C17.4876 14.0231 17.8908 13.1371 17.7027 12.2719L15.7484 12.6968ZM27.1349 6.31088L25.7871 7.78848C26.2166 8.18029 26.7954 8.3658 27.3726 8.29671C27.9499 8.22761 28.4685 7.91074 28.7934 7.42862L27.1349 6.31088ZM55.384 14.1072L55.384 14.0936L51.384 14.0914L51.384 14.105L55.384 14.1072ZM62.2546 23.6753C62.2546 18.3638 58.8073 13.8756 54.0413 12.2172L52.7267 15.995C55.9663 17.1223 58.2546 20.151 58.2546 23.6753H62.2546ZM49.9488 35.8219C56.7157 35.8219 62.2546 30.413 62.2546 23.6753H58.2546C58.2546 28.1453 54.5655 31.8219 49.9488 31.8219V35.8219ZM49.9487 35.8219H49.9487H49.9487H49.9487H49.9487C49.9488 35.8219 49.9488 35.8219 49.9488 35.8219C49.9488 35.8219 49.9488 35.8219 49.9488 35.8219C49.9488 35.8219 49.9488 35.8219 49.9488 35.8219C49.9488 35.8219 49.9488 35.8219 49.9488 35.8219C49.9488 35.8219 49.9488 35.8219 49.9488 35.8219C49.9488 35.8219 49.9488 35.8219 49.9488 35.8219C49.9488 35.8219 49.9488 35.8219 49.9488 35.8219C49.9488 35.8219 49.9488 35.8219 49.9488 35.8219C49.9488 35.8219 49.9488 35.8219 49.9488 35.8219C49.9488 35.8219 49.9488 35.8219 49.9488 35.8219C49.9488 35.8219 49.9488 35.8219 49.9488 35.8219C49.9488 35.8219 49.9488 35.8219 49.9488 35.8219C49.9488 35.8219 49.9488 35.8219 49.9488 35.8219C49.9488 35.8219 49.9488 35.8219 49.9488 35.8219C49.9488 35.8219 49.9488 35.8219 49.9488 35.8219C49.9488 35.8219 49.9488 35.8219 49.9488 35.8219C49.9488 35.8219 49.9488 35.8219 49.9488 35.8219C49.9488 35.8219 49.9488 35.8219 49.9488 35.8219H49.9488H49.9488H49.9488H49.9488H49.9488V31.8219H49.9488H49.9488H49.9488H49.9488H49.9488C49.9488 31.8219 49.9488 31.8219 49.9488 31.8219C49.9488 31.8219 49.9488 31.8219 49.9488 31.8219C49.9488 31.8219 49.9488 31.8219 49.9488 31.8219C49.9488 31.8219 49.9488 31.8219 49.9488 31.8219C49.9488 31.8219 49.9488 31.8219 49.9488 31.8219C49.9488 31.8219 49.9488 31.8219 49.9488 31.8219C49.9488 31.8219 49.9488 31.8219 49.9488 31.8219C49.9488 31.8219 49.9488 31.8219 49.9488 31.8219C49.9488 31.8219 49.9488 31.8219 49.9488 31.8219C49.9488 31.8219 49.9488 31.8219 49.9488 31.8219C49.9488 31.8219 49.9488 31.8219 49.9488 31.8219C49.9488 31.8219 49.9488 31.8219 49.9488 31.8219C49.9488 31.8219 49.9488 31.8219 49.9488 31.8219C49.9488 31.8219 49.9488 31.8219 49.9488 31.8219C49.9488 31.8219 49.9488 31.8219 49.9488 31.8219C49.9488 31.8219 49.9488 31.8219 49.9488 31.8219C49.9488 31.8219 49.9488 31.8219 49.9488 31.8219C49.9488 31.8219 49.9488 31.8219 49.9487 31.8219H49.9487H49.9487H49.9487H49.9487V35.8219ZM49.9487 31.8219H21.3215V35.8219H49.9487V31.8219ZM23.3215 33.8219V33.8217H19.3215V33.8219H23.3215ZM21.3215 35.8217C21.3215 35.8217 21.3215 35.8217 21.3215 35.8217C21.3215 35.8217 21.3215 35.8217 21.3215 35.8217H21.3215C21.3215 35.8217 21.3215 35.8217 21.3215 35.8217C21.3215 35.8217 21.3215 35.8217 21.3215 35.8217C21.3215 35.8217 21.3215 35.8217 21.3215 35.8217H21.3215H21.3215C21.3215 35.8217 21.3215 35.8217 21.3215 35.8217C21.3215 35.8217 21.3215 35.8217 21.3215 35.8217H21.3215H21.3215C21.3215 35.8217 21.3215 35.8217 21.3215 35.8217C21.3215 35.8217 21.3215 35.8217 21.3215 35.8217C21.3215 35.8217 21.3215 35.8217 21.3215 35.8217H21.3215C21.3215 35.8217 21.3215 35.8217 21.3215 35.8217C21.3215 35.8217 21.3215 35.8217 21.3215 35.8217C21.3215 35.8217 21.3215 35.8217 21.3215 35.8217C21.3215 35.8217 21.3215 35.8217 21.3215 35.8217H21.3215C21.3215 35.8217 21.3215 35.8217 21.3215 35.8217C21.3215 35.8217 21.3215 35.8217 21.3215 35.8217C21.3215 35.8217 21.3215 35.8217 21.3215 35.8217H21.3215H21.3215C21.3215 35.8217 21.3215 35.8217 21.3215 35.8217C21.3215 35.8217 21.3215 35.8217 21.3215 35.8217H21.3215H21.3215C21.3215 35.8217 21.3215 35.8217 21.3215 35.8217C21.3215 35.8217 21.3215 35.8217 21.3215 35.8217C21.3215 35.8217 21.3215 35.8217 21.3215 35.8217H21.3215C21.3215 35.8217 21.3215 35.8217 21.3215 35.8217C21.3215 35.8217 21.3215 35.8217 21.3215 35.8217V31.8217C21.3215 31.8217 21.3215 31.8217 21.3215 31.8217C21.3215 31.8217 21.3215 31.8217 21.3215 31.8217H21.3215C21.3215 31.8217 21.3215 31.8217 21.3215 31.8217C21.3215 31.8217 21.3215 31.8217 21.3215 31.8217C21.3215 31.8217 21.3215 31.8217 21.3215 31.8217H21.3215H21.3215C21.3215 31.8217 21.3215 31.8217 21.3215 31.8217C21.3215 31.8217 21.3215 31.8217 21.3215 31.8217H21.3215H21.3215C21.3215 31.8217 21.3215 31.8217 21.3215 31.8217C21.3215 31.8217 21.3215 31.8217 21.3215 31.8217C21.3215 31.8217 21.3215 31.8217 21.3215 31.8217H21.3215C21.3215 31.8217 21.3215 31.8217 21.3215 31.8217C21.3215 31.8217 21.3215 31.8217 21.3215 31.8217C21.3215 31.8217 21.3215 31.8217 21.3215 31.8217C21.3215 31.8217 21.3215 31.8217 21.3215 31.8217H21.3215C21.3215 31.8217 21.3215 31.8217 21.3215 31.8217C21.3215 31.8217 21.3215 31.8217 21.3215 31.8217C21.3215 31.8217 21.3215 31.8217 21.3215 31.8217H21.3215H21.3215C21.3215 31.8217 21.3215 31.8217 21.3215 31.8217C21.3215 31.8217 21.3215 31.8217 21.3215 31.8217H21.3215H21.3215C21.3215 31.8217 21.3215 31.8217 21.3215 31.8217C21.3215 31.8217 21.3215 31.8217 21.3215 31.8217C21.3215 31.8217 21.3215 31.8217 21.3215 31.8217H21.3215C21.3215 31.8217 21.3215 31.8217 21.3215 31.8217C21.3215 31.8217 21.3215 31.8217 21.3215 31.8217V35.8217ZM7.87057 22.5478C7.87057 29.908 13.9222 35.8217 21.3215 35.8217V31.8217C16.0724 31.8217 11.8706 27.6404 11.8706 22.5478H7.87057ZM14.7851 10.9441C10.6749 13.2029 7.87057 17.5436 7.87057 22.5478H11.8706C11.8706 19.0827 13.8087 16.0449 16.7116 14.4496L14.7851 10.9441ZM13.5961 11.274C13.5961 11.9059 13.6641 12.5244 13.794 13.1218L17.7027 12.2719C17.6331 11.9518 17.5961 11.6182 17.5961 11.274H13.5961ZM22.4666 2.5096C17.597 2.5096 13.5961 6.40431 13.5961 11.274H17.5961C17.5961 8.67194 19.7472 6.5096 22.4666 6.5096V2.5096ZM28.4828 4.83329C26.9004 3.38982 24.7832 2.5096 22.4666 2.5096V6.5096C23.7549 6.5096 24.9184 6.9961 25.7871 7.78848L28.4828 4.83329ZM39.0704 -2C33.4025 -2 28.4006 0.85429 25.4764 5.19314L28.7934 7.42862C30.9959 4.16066 34.7713 2 39.0704 2V-2ZM55.384 14.0925C55.384 5.1756 48.0507 -2 39.0704 -2V2C45.9005 2 51.384 7.44323 51.384 14.0925H55.384Z" fill="#B8C0CC" mask="url(#path-1-inside-1)"/>
<rect x="2.99994" y="29.3123" width="64.125" height="36.0767" rx="3" fill="white" stroke="#EC008C" stroke-width="2"/>
<path d="M28.934 65.4701L28.1919 71.0259H41.8919L41.1936 65.3889" stroke="#EC008C" stroke-width="2" stroke-miterlimit="10" stroke-linecap="round" stroke-linejoin="round"/>
<path d="M31.6272 19.1655V37.7676L27.6194 33.8217" stroke="#EC008C" stroke-width="2" stroke-linecap="round" stroke-linejoin="round"/>
<path d="M38.4978 37.7676L38.4978 19.1655L42.5056 23.1114" stroke="#EC008C" stroke-width="2" stroke-linecap="round" stroke-linejoin="round"/>
<path d="M2.99994 59.7522L67.1249 59.7522" stroke="#EC008C" stroke-width="2"/>
</g>
<defs>
<clipPath id="clip0">
<rect width="71" height="72" fill="white"/>
</clipPath>
</defs>
</svg>
