<svg width="82" height="73" viewBox="0 0 82 73" fill="none" xmlns="http://www.w3.org/2000/svg">
<g clip-path="url(#clip0)">
<path d="M14.8377 1.04004H65.3463L79.7338 17.3247L41.3168 70.1601L1.8956 18.4636L14.8377 1.04004Z" stroke="#B8C0CC" stroke-width="1.88" stroke-miterlimit="10"/>
<path d="M23.2212 27.56C23.2212 25.4392 24.9185 23.72 27.0124 23.72H30.6852V34.52H27.0124C24.9185 34.52 23.2212 32.8007 23.2212 30.68V27.56Z" stroke="#EC008C" stroke-width="1.88"/>
<path d="M58.4083 27.56C58.4083 25.4392 56.7109 23.72 54.6171 23.72H50.9443V34.52H54.6171C56.7109 34.52 58.4083 32.8007 58.4083 30.68V27.56Z" stroke="#EC008C" stroke-width="1.88"/>
<path d="M53.0769 23.72V18.08C53.0769 12.2479 48.4092 7.52002 42.6511 7.52002H38.9783C33.2203 7.52002 28.5525 12.2479 28.5525 18.08V23.72" stroke="#EC008C" stroke-width="1.88"/>
<path d="M53.077 34.52V37.52C53.077 41.2314 50.1066 44.24 46.4424 44.24H45.613" stroke="#EC008C" stroke-width="1.88"/>
<path d="M43.4804 42.0801H40.2816C39.1038 42.0801 38.149 43.0471 38.149 44.2401C38.149 45.433 39.1038 46.4001 40.2816 46.4001H43.4804C44.6582 46.4001 45.613 45.433 45.613 44.2401C45.613 43.0471 44.6582 42.0801 43.4804 42.0801Z" stroke="#EC008C" stroke-width="1.88"/>
</g>
<defs>
<clipPath id="clip0">
<rect width="81.5109" height="72" fill="white" transform="translate(0 0.0800781)"/>
</clipPath>
</defs>
</svg>
