<svg width="69" height="73" viewBox="0 0 69 73" fill="none" xmlns="http://www.w3.org/2000/svg">
<g clip-path="url(#clip0)">
<path d="M67.6284 71.1071H1.10863L4.55012 36.0801H64.2881L67.6284 71.1071Z" stroke="#B8C0CC" stroke-width="1.88" stroke-miterlimit="10" stroke-linejoin="round"/>
<path d="M47.7109 47.0259L31.9766 25.3264L31.0425 16.0581L34.0591 8.48181L38.2829 4.2157L42.582 2.15636L47.548 1.05298L51.1039 1.78826L58.1932 4.87773L62.4171 10.2472L64.3024 16.7942L63.2948 27.523L47.7109 47.0259Z" fill="white"/>
<path d="M64.3024 18.5227C64.3024 30.9354 47.4382 47.0259 47.4382 47.0259C47.4382 47.0259 31.0425 30.9354 31.0425 18.5227C31.0425 9.63615 37.1323 1.05298 47.4382 1.05298C57.744 1.05298 64.3024 9.63615 64.3024 18.5227Z" stroke="#EC008C" stroke-width="1.88"/>
<path d="M47.6725 22.945C50.734 22.945 53.2158 20.4946 53.2158 17.472C53.2158 14.4494 50.734 11.999 47.6725 11.999C44.611 11.999 42.1292 14.4494 42.1292 17.472C42.1292 20.4946 44.611 22.945 47.6725 22.945Z" stroke="#EC008C" stroke-width="1.88"/>
<path d="M26.514 58.2796L7.94955 32.362L6.84753 21.2919L10.4066 12.243L15.3903 7.14763L20.4624 4.68798L26.3217 3.37012L30.5173 4.24833L38.8816 7.93834L43.8653 14.3516L46.0896 22.1712L44.9008 34.9856L26.514 58.2796Z" fill="white"/>
<path d="M46.5638 24.5868C46.5638 39.3639 26.3268 58.5193 26.3268 58.5193C26.3268 58.5193 6.65195 39.3639 6.65195 24.5868C6.65195 14.0076 13.9598 3.78955 26.3268 3.78955C38.6939 3.78955 46.5638 14.0076 46.5638 24.5868Z" stroke="#EC008C" stroke-width="1.88"/>
<path d="M26.6079 29.5126C30.2817 29.5126 33.2599 26.5722 33.2599 22.945C33.2599 19.3178 30.2817 16.3774 26.6079 16.3774C22.9341 16.3774 19.9559 19.3178 19.9559 22.945C19.9559 26.5722 22.9341 29.5126 26.6079 29.5126Z" stroke="#EC008C" stroke-width="1.88"/>
</g>
<defs>
<clipPath id="clip0">
<rect width="68.9834" height="72" fill="white" transform="translate(0 0.0800781)"/>
</clipPath>
</defs>
</svg>
