<svg width="66" height="73" viewBox="0 0 66 73" fill="none" xmlns="http://www.w3.org/2000/svg">
<g clip-path="url(#clip0)">
<path d="M32.8077 32.8311C31.5254 32.8311 30.486 33.8766 30.486 35.1663C30.4858 36.0988 31.0307 36.9012 31.8163 37.2756V40.1142C31.8163 40.6648 32.2601 41.1112 32.8076 41.1112C33.3551 41.1112 33.7989 40.6649 33.7989 40.1142V37.2756C34.5846 36.9012 35.1295 36.0988 35.1295 35.1663C35.1295 33.8766 34.09 32.8311 32.8077 32.8311Z" fill="#EC008C"/>
<path d="M1.23916 12.9169C7.98579 12.9169 14.1702 7.8324 14.1702 1.05298H51.3567C51.3567 7.8324 57.547 12.9169 64.3 12.9169C64.3 29.8655 66.5198 54.1584 32.7546 71.107C-0.978549 54.1584 1.23916 29.8655 1.23916 12.9169Z" stroke="#B8C0CC" stroke-width="1.88" stroke-linejoin="round"/>
<path d="M41.4759 26.2288V20.7558C41.4759 15.9195 37.578 11.999 32.7696 11.999C27.9613 11.999 24.0633 15.9195 24.0633 20.7558V26.2288" stroke="#EC008C" stroke-width="1.88"/>
<path d="M44.0152 27.2017H21.5239C20.4554 27.2017 19.5892 28.0729 19.5892 29.1476V45.2017C19.5892 46.2764 20.4554 47.1476 21.5239 47.1476H44.0152C45.0837 47.1476 45.95 46.2764 45.95 45.2017V29.1476C45.95 28.0729 45.0837 27.2017 44.0152 27.2017Z" stroke="#EC008C" stroke-width="1.88"/>
</g>
<defs>
<clipPath id="clip0">
<rect width="65.781" height="72" fill="white" transform="translate(0 0.0800781)"/>
</clipPath>
</defs>
</svg>
